<?xml version="1.0" encoding="utf-8"?>
<!-- Generator: Adobe Illustrator 16.0.4, SVG Export Plug-In . SVG Version: 6.00 Build 0)  -->
<!DOCTYPE svg PUBLIC "-//W3C//DTD SVG 1.1//EN" "http://www.w3.org/Graphics/SVG/1.1/DTD/svg11.dtd">
<svg version="1.1" id="Layer_1" xmlns="http://www.w3.org/2000/svg" xmlns:xlink="http://www.w3.org/1999/xlink" x="0px" y="0px"
	 width="107px" height="29.72px" viewBox="0 0 107 29.72" enable-background="new 0 0 107 29.72" xml:space="preserve">
<polygon fill="#FFFFFF" points="101.592,15.244 101.592,11.913 100.318,11.913 100.318,11.466 103.365,11.466 103.365,11.913 
	102.092,11.913 102.092,15.244 "/>
<polygon fill="#FFFFFF" points="106.303,11.466 105.392,13.568 104.447,11.466 103.764,11.466 103.764,15.244 104.23,15.244 
	104.23,11.987 105.21,14.2 105.515,14.2 106.499,11.987 106.499,15.244 107.001,15.244 107.001,11.466 "/>
<g>
	<defs>
		<rect id="SVGID_1_" width="107" height="29.72"/>
	</defs>
	<clipPath id="SVGID_2_">
		<use xlink:href="#SVGID_1_"  overflow="visible"/>
	</clipPath>
	<path clip-path="url(#SVGID_2_)" fill="#FFFFFF" d="M8.018,4.464c3.584,0,5.971,2.045,5.971,5.562c0,1.808-1.407,3.436-3.626,4.39
		c2.866,0.146,4.311,2.537,4.311,4.617c0,3.481-2.39,5.527-5.974,5.527H0V4.464H8.018z M11.261,10.026
		c0-1.911-1.229-3.208-3.823-3.208H2.697v6.551h4.947C10.168,13.336,11.261,11.901,11.261,10.026 M2.697,22.039h5.461
		c2.591,0,3.82-1.161,3.82-3.005c0-2.251-1.128-3.343-3.788-3.343H2.697V22.039z"/>
	<path clip-path="url(#SVGID_2_)" fill="#FFFFFF" d="M30.905,17.398c-0.115-3.792-2.945-7.1-7.223-7.1
		c-2.083,0-4.061,0.989-5.29,2.424c-1.173,1.27-1.8,3.005-1.854,4.675c-0.003,0.078-0.023,0.16-0.023,0.237
		c0,1.739,0.649,3.584,1.877,4.914c1.229,1.432,3.207,2.422,5.29,2.422c4.366,0,7.234-3.445,7.234-7.336
		C30.917,17.556,30.907,17.477,30.905,17.398 M23.648,22.309c-2.695,0-4.607-2.082-4.607-4.776c0-0.046,0.011-0.086,0.011-0.135
		c0.064-2.627,1.946-4.643,4.596-4.643c2.737,0,4.579,2.094,4.658,4.643c0.003,0.058,0.018,0.111,0.018,0.169
		C28.254,20.125,26.41,22.309,23.648,22.309"/>
	<path clip-path="url(#SVGID_2_)" fill="#FFFFFF" d="M86.177,17.398c-0.114-3.792-2.944-7.1-7.222-7.1
		c-2.083,0-4.062,0.989-5.29,2.424c-1.174,1.27-1.8,3.005-1.855,4.675c-0.001,0.078-0.021,0.16-0.021,0.237
		c0,1.739,0.647,3.584,1.876,4.914c1.228,1.432,3.207,2.422,5.29,2.422c4.367,0,7.233-3.445,7.233-7.336
		C86.188,17.556,86.18,17.477,86.177,17.398 M78.92,22.309c-2.696,0-4.605-2.082-4.605-4.776c0-0.046,0.009-0.086,0.011-0.135
		c0.063-2.627,1.947-4.643,4.595-4.643c2.736,0,4.58,2.094,4.661,4.643c0.001,0.058,0.015,0.111,0.015,0.169
		C83.526,20.125,81.685,22.309,78.92,22.309"/>
	<path clip-path="url(#SVGID_2_)" fill="#FFFFFF" d="M43.132,22.039c-1.331,2.046-2.627,2.933-5.119,2.933
		c-2.831,0-4.878-2.287-5.152-4.846c-0.068-0.716-0.068-1.775-0.068-2.593v-6.926h2.627v7.677c0,3.139,1.877,4.025,3.481,4.025
		c2.115,0,4.061-1.33,4.061-4.163v-7.54h2.693v13.891h-2.532L43.132,22.039z"/>
	<path clip-path="url(#SVGID_2_)" fill="#FFFFFF" d="M51.767,13.131v5.253c0.069,1.538,0.445,2.596,1.06,3.175
		c0.613,0.546,1.466,0.854,2.253,0.854c0.442,0,1.055-0.137,1.498-0.272c0,0.442-0.032,0.75-0.032,1.09v1.024
		c-0.785,0.377-1.603,0.581-2.458,0.581c-0.954,0-1.911-0.241-2.592-0.614c-1.946-1.058-2.354-3.312-2.354-5.46V7.829l2.662,0.013
		c-0.037,0.409-0.037,1.229-0.037,3.105V13.131z"/>
	<path clip-path="url(#SVGID_2_)" fill="#FFFFFF" d="M63.559,13.678c1.059-2.322,2.729-3.414,4.947-3.414
		c1.569,0,2.661,0.581,3.445,1.163c-0.338,0.544-0.718,1.228-0.988,1.74c-0.171,0.271-0.273,0.545-0.442,0.817
		c-0.751-0.478-1.81-0.853-2.765-0.853c-2.117,0-4.061,1.536-4.061,4.368v7.063h-2.696V10.817h2.579L63.559,13.678z"/>
	<path clip-path="url(#SVGID_2_)" fill="#FFFFFF" d="M97.082,14.166c0,0.081-1.064-0.59-1.144-0.625
		c-0.796-0.363-1.83-0.801-2.638-0.956c-0.376-0.068-0.786-0.102-1.194-0.102c-1.263,0-2.32,0.445-2.354,1.536
		c-0.068,0.955,0.921,1.569,1.91,1.875c0.308,0.104,0.613,0.17,1.093,0.274c0.17,0.033,0.307,0.1,0.477,0.135
		c1.195,0.274,2.286,0.548,3.072,0.923c1.33,0.545,2.456,1.741,2.456,3.514c-0.034,2.354-1.908,4.267-5.835,4.267
		c-1.532,0-3.351-0.449-4.938-1.151c0-1.494-0.02-2.696-0.02-2.696c1.434,0.717,3.523,1.356,5.027,1.391
		c1.603,0.033,3-0.308,3-1.672c0-1.468-1.568-1.81-2.969-2.15c-0.271-0.103-0.613-0.204-0.885-0.271
		c-2.355-0.685-4.949-1.776-4.949-4.335c0-2.559,2.218-4.028,5.458-3.889c1.77,0.088,3.308,0.583,4.485,1.134L97.082,14.166z"/>
	
		<rect x="51.628" y="8.809" transform="matrix(0.7068 0.7074 -0.7074 0.7068 24.9321 -35.4143)" clip-path="url(#SVGID_2_)" fill="#FFFFFF" width="7.126" height="7.126"/>
	
		<rect x="51.628" y="8.809" transform="matrix(0.7068 0.7074 -0.7074 0.7068 24.9321 -35.4143)" clip-path="url(#SVGID_2_)" fill="none" stroke="#FFFFFF" stroke-width="0.559" stroke-miterlimit="10" width="7.126" height="7.126"/>
	<polygon clip-path="url(#SVGID_2_)" fill="#ED1C24" points="54.797,17.413 49.76,12.372 54.797,7.332 59.841,12.372 	"/>
</g>
</svg>
