<?xml version="1.0" encoding="utf-8"?>
<!-- Generator: Adobe Illustrator 16.0.4, SVG Export Plug-In . SVG Version: 6.00 Build 0)  -->
<!DOCTYPE svg PUBLIC "-//W3C//DTD SVG 1.1//EN" "http://www.w3.org/Graphics/SVG/1.1/DTD/svg11.dtd">
<svg version="1.1" id="Layer_1" xmlns="http://www.w3.org/2000/svg" xmlns:xlink="http://www.w3.org/1999/xlink" x="0px" y="0px"
	 width="113.375px" height="21.529px" viewBox="0 0 113.375 21.529" enable-background="new 0 0 113.375 21.529"
	 xml:space="preserve">
<polygon points="107.369,11.392 107.369,7.871 106.023,7.871 106.023,7.399 109.243,7.399 109.243,7.871 107.897,7.871 
	107.897,11.392 "/>
<polygon points="112.349,7.399 111.385,9.621 110.387,7.399 109.665,7.399 109.665,11.391 110.159,11.391 110.159,7.949 
	111.193,10.289 111.516,10.289 112.556,7.949 112.556,11.391 113.001,11.391 113.001,7.399 "/>
<path d="M8.475,0c3.788,0,6.31,2.162,6.31,5.877c0,1.913-1.487,3.633-3.831,4.641c3.027,0.155,4.554,2.681,4.554,4.879
	c0,3.68-2.525,5.842-6.312,5.842H0V0H8.475z M11.901,5.877c0-2.019-1.299-3.389-4.039-3.389H2.851v6.923H8.08
	C10.745,9.375,11.901,7.859,11.901,5.877 M2.851,18.573h5.771c2.739,0,4.038-1.228,4.038-3.176c0-2.38-1.191-3.533-4.002-3.533
	H2.851V18.573z"/>
<path d="M32.662,13.668c-0.12-4.008-3.112-7.503-7.633-7.503c-2.201,0-4.292,1.046-5.59,2.562c-1.24,1.343-1.901,3.177-1.96,4.942
	c-0.004,0.083-0.023,0.168-0.023,0.252c0,1.836,0.686,3.787,1.983,5.191c1.298,1.516,3.389,2.561,5.59,2.561
	c4.616,0,7.645-3.643,7.645-7.752C32.673,13.836,32.665,13.752,32.662,13.668 M24.993,18.859c-2.848,0-4.869-2.199-4.869-5.049
	c0-0.048,0.012-0.091,0.012-0.142c0.068-2.777,2.056-4.906,4.857-4.906c2.894,0,4.839,2.213,4.924,4.906
	c0.003,0.06,0.017,0.118,0.017,0.178C29.861,16.552,27.913,18.859,24.993,18.859"/>
<path d="M91.078,13.668c-0.122-4.008-3.112-7.503-7.634-7.503c-2.2,0-4.292,1.046-5.591,2.562c-1.239,1.343-1.902,3.177-1.96,4.942
	c-0.001,0.083-0.021,0.168-0.021,0.252c0,1.836,0.686,3.787,1.981,5.191c1.299,1.516,3.391,2.561,5.591,2.561
	c4.616,0,7.646-3.643,7.646-7.752C91.091,13.836,91.08,13.752,91.078,13.668 M83.407,18.859c-2.849,0-4.866-2.199-4.866-5.049
	c0-0.048,0.009-0.091,0.011-0.142c0.067-2.777,2.058-4.906,4.855-4.906c2.894,0,4.841,2.213,4.926,4.906
	c0.002,0.06,0.018,0.118,0.018,0.178C88.276,16.552,86.33,18.859,83.407,18.859"/>
<path d="M45.585,18.573c-1.407,2.163-2.776,3.1-5.411,3.1c-2.991,0-5.156-2.417-5.445-5.12c-0.07-0.759-0.07-1.877-0.07-2.742V6.491
	h2.774v8.114c0,3.316,1.985,4.254,3.679,4.254c2.236,0,4.292-1.405,4.292-4.4V6.491h2.848v14.682h-2.678L45.585,18.573z"/>
<path d="M54.711,9.158v5.554c0.073,1.625,0.469,2.741,1.119,3.354c0.649,0.577,1.551,0.901,2.381,0.901
	c0.468,0,1.115-0.145,1.585-0.287c0,0.468-0.036,0.793-0.036,1.151v1.085c-0.829,0.396-1.692,0.612-2.597,0.612
	c-1.007,0-2.021-0.254-2.739-0.649c-2.058-1.118-2.489-3.5-2.489-5.771V3.555l2.813,0.014c-0.038,0.433-0.038,1.299-0.038,3.283
	V9.158z"/>
<path d="M67.173,9.736c1.119-2.453,2.885-3.606,5.229-3.606c1.658,0,2.812,0.613,3.643,1.228c-0.36,0.576-0.761,1.297-1.046,1.84
	c-0.182,0.287-0.289,0.576-0.468,0.863c-0.794-0.504-1.913-0.901-2.921-0.901c-2.239,0-4.293,1.624-4.293,4.616v7.464h-2.85V6.714
	h2.726L67.173,9.736z"/>
<path d="M102.603,10.252c0,0.084-1.124-0.625-1.209-0.66c-0.839-0.384-1.935-0.848-2.787-1.01c-0.397-0.074-0.831-0.109-1.262-0.109
	c-1.335,0-2.453,0.47-2.488,1.624c-0.072,1.009,0.974,1.658,2.019,1.983c0.325,0.11,0.648,0.18,1.154,0.29
	c0.18,0.034,0.326,0.105,0.505,0.143c1.263,0.289,2.416,0.578,3.246,0.974c1.406,0.577,2.598,1.84,2.598,3.713
	c-0.037,2.488-2.02,4.51-6.169,4.51c-1.619,0-3.541-0.476-5.219-1.217c0-1.58-0.021-2.85-0.021-2.85
	c1.516,0.757,3.725,1.435,5.313,1.469c1.694,0.036,3.171-0.324,3.171-1.767c0-1.551-1.657-1.913-3.136-2.271
	c-0.289-0.109-0.65-0.217-0.937-0.289c-2.49-0.722-5.23-1.876-5.23-4.582c0-2.706,2.345-4.257,5.769-4.11
	c1.871,0.093,3.494,0.616,4.739,1.199L102.603,10.252z"/>
<rect x="54.565" y="4.591" transform="matrix(0.7069 0.7073 -0.7073 0.7069 23.0068 -38.8084)" width="7.532" height="7.531"/>
<rect x="54.565" y="4.591" transform="matrix(0.7069 0.7073 -0.7073 0.7069 23.0068 -38.8084)" fill="none" stroke="#FFFFFF" stroke-width="0.5909" stroke-miterlimit="10" width="7.532" height="7.531"/>
<polygon fill="#ED1C24" points="57.914,13.684 52.59,8.356 57.914,3.03 63.244,8.356 "/>
</svg>
