<?xml version="1.0" encoding="utf-8"?>
<!-- Generator: Adobe Illustrator 16.0.4, SVG Export Plug-In . SVG Version: 6.00 Build 0)  -->
<!DOCTYPE svg PUBLIC "-//W3C//DTD SVG 1.1//EN" "http://www.w3.org/Graphics/SVG/1.1/DTD/svg11.dtd">
<svg version="1.1" id="Layer_1" xmlns="http://www.w3.org/2000/svg" xmlns:xlink="http://www.w3.org/1999/xlink" x="0px" y="0px"
	 width="162px" height="29.717px" viewBox="0 0 162 29.717" enable-background="new 0 0 162 29.717" xml:space="preserve">
<polygon fill="#FFFFFF" points="48.658,11.036 45.383,11.036 45.383,20.443 42.897,20.443 42.897,11.036 39.582,11.036 
	39.582,9.046 48.658,9.046 "/>
<g>
	<defs>
		<rect id="SVGID_1_" y="0" width="162" height="29.717"/>
	</defs>
	<clipPath id="SVGID_2_">
		<use xlink:href="#SVGID_1_"  overflow="visible"/>
	</clipPath>
	<path clip-path="url(#SVGID_2_)" fill="#FFFFFF" d="M54.667,20.443v-4.248c0-0.787-0.104-1.471-1.016-1.471
		c-0.497,0-1.098,0.207-1.553,0.559v5.16h-2.425V9.047h2.425v4.558c0.621-0.538,1.491-0.953,2.444-0.953
		c1.223,0,2.549,0.477,2.549,2.818v4.973H54.667z"/>
	<path clip-path="url(#SVGID_2_)" fill="#FFFFFF" d="M63.267,20.443L62.935,19.8c-0.518,0.456-1.181,0.808-2.114,0.808
		c-1.491,0-2.59-0.974-2.59-2.507c0-1.637,1.368-2.445,3.274-2.528l1.223-0.041v-0.063c0-0.683-0.643-0.994-1.327-0.994
		c-0.725,0-1.408,0.186-1.947,0.476l-0.705-1.429c1.078-0.684,2.114-0.829,3.17-0.829c2.176,0,3.295,0.87,3.295,2.901v3.481
		c0,0.393,0,0.994,0.124,1.409L63.267,20.443z M62.707,17.044l-0.829,0.042c-0.829,0.041-1.243,0.311-1.243,0.829
		c0,0.538,0.394,0.828,1.077,0.828c0.477,0,0.808-0.104,0.974-0.229L62.707,17.044z"/>
	<path clip-path="url(#SVGID_2_)" fill="#FFFFFF" d="M76.444,20.443V16.09c0-0.745-0.104-1.388-1.015-1.388
		c-0.477,0-1.016,0.187-1.451,0.498v0.165v5.077h-2.424v-4.331c0-0.746-0.104-1.409-0.995-1.409c-0.476,0-1.036,0.187-1.471,0.498
		v5.242h-2.424v-7.604h2.051l0.228,0.766c0.705-0.538,1.575-0.953,2.486-0.953c0.974,0,1.679,0.394,2.073,1.057
		c0.911-0.746,1.885-1.057,2.672-1.057c1.41,0,2.694,0.684,2.694,2.797v4.994H76.444z"/>
	<path clip-path="url(#SVGID_2_)" fill="#FFFFFF" d="M82.411,17.335c0.041,0.932,1.036,1.366,1.907,1.366
		c0.746,0,1.284-0.103,2.092-0.518l0.539,1.534c-1.057,0.683-2.113,0.89-3.024,0.89c-2.839,0-3.937-1.926-3.937-3.874
		c0-2.134,1.305-4.062,3.708-4.062c2.114,0,3.647,1.554,3.647,3.917v0.746H82.411z M83.593,14.413c-0.809,0-1.265,0.746-1.265,1.326
		h2.55C84.815,15.097,84.463,14.413,83.593,14.413"/>
	<path clip-path="url(#SVGID_2_)" fill="#FFFFFF" d="M91.239,20.608c-1.368,0-2.425-0.311-3.212-0.808l0.746-1.74
		c0.704,0.497,1.471,0.767,2.195,0.767c0.685,0,1.099-0.207,1.099-0.602c0-1.036-3.543-0.6-3.543-3.149
		c0-1.471,1.223-2.425,3.108-2.425c1.057,0,1.782,0.145,2.445,0.394v1.989c-0.726-0.29-1.513-0.538-2.342-0.538
		c-0.602,0-0.851,0.165-0.851,0.455c0,0.872,3.606,0.498,3.606,3.212C94.471,19.946,92.876,20.608,91.239,20.608"/>
	<path clip-path="url(#SVGID_2_)" fill="#FFFFFF" d="M126.257,20.443l-0.331-0.725c-0.52,0.476-1.265,0.891-2.259,0.891
		c-0.974,0-2.756-0.498-2.756-3.15v-4.62h2.424v4.496c0,0.746,0.395,1.389,1.306,1.389c0.393,0,0.746-0.146,1.098-0.373v-5.511
		h2.425v6.216c0,0.373,0,0.973,0.124,1.408L126.257,20.443z"/>
	<path clip-path="url(#SVGID_2_)" fill="#FFFFFF" d="M133.55,20.609c-2.382,0-4.289-1.409-4.289-3.938
		c0-2.362,1.762-3.999,4.413-3.999c0.29,0,0.539,0.021,0.788,0.041V9.067h2.424v10.899C135.996,20.38,134.98,20.609,133.55,20.609
		 M134.441,14.6c-0.229-0.042-0.414-0.042-0.726-0.042c-1.284,0-2.051,0.726-2.051,2.01c0,1.161,0.87,2.052,2.03,2.052
		c0.249,0,0.539-0.041,0.746-0.062V14.6z"/>
	<path clip-path="url(#SVGID_2_)" fill="#FFFFFF" d="M141.135,20.608c-1.368,0-2.425-0.311-3.212-0.808l0.746-1.74
		c0.704,0.497,1.471,0.767,2.195,0.767c0.685,0,1.099-0.207,1.099-0.602c0-1.036-3.543-0.6-3.543-3.149
		c0-1.471,1.223-2.425,3.108-2.425c1.057,0,1.782,0.145,2.444,0.394v1.989c-0.725-0.29-1.512-0.538-2.341-0.538
		c-0.602,0-0.851,0.165-0.851,0.455c0,0.872,3.606,0.498,3.606,3.212C144.366,19.946,142.771,20.608,141.135,20.608"/>
	<path clip-path="url(#SVGID_2_)" fill="#FFFFFF" d="M152.24,19.427c-0.725,0.746-1.74,1.182-2.983,1.182
		c-1.16,0-2.113-0.332-2.797-0.953c-0.809-0.704-1.266-1.762-1.266-2.943c0-1.139,0.416-2.154,1.141-2.901
		c0.705-0.725,1.698-1.16,2.922-1.16c1.306,0,2.342,0.435,3.065,1.181c0.664,0.705,0.996,1.679,0.996,2.756
		C153.318,17.708,152.944,18.703,152.24,19.427 M149.216,14.538c-1.078,0-1.533,0.953-1.533,2.113c0,1.264,0.6,2.113,1.595,2.113
		c1.078,0,1.533-0.952,1.533-2.113C150.811,15.408,150.21,14.538,149.216,14.538"/>
	<path clip-path="url(#SVGID_2_)" fill="#FFFFFF" d="M159.555,20.443V16.09c0-0.663-0.146-1.408-0.994-1.408
		c-0.497,0-1.036,0.145-1.637,0.538v5.222h-2.426v-7.604h2.073l0.249,0.766c0.767-0.601,1.636-0.953,2.652-0.953
		c1.181,0,2.526,0.642,2.526,2.776v5.015H159.555z"/>
	<polygon clip-path="url(#SVGID_2_)" fill="#FFFFFF" points="117.14,20.443 117.14,15.76 112.934,15.76 112.934,20.443 
		110.468,20.443 110.468,9.068 112.934,9.068 112.934,13.667 117.14,13.667 117.14,9.068 119.605,9.068 119.605,20.443 	"/>
	<path clip-path="url(#SVGID_2_)" fill="#FFFFFF" d="M101.578,12.652c1.265,0,2.632,0.621,2.632,1.968
		c0,1.078-1.119,1.699-1.533,2.01l1.077,1.057c0,0,0.788-0.663,0.975-1.554l1.449,0.518c-0.124,0.621-0.891,1.761-1.305,2.113
		l1.74,1.679h-2.466l-0.435-0.394c0-0.062-0.787,0.559-2.507,0.559c-1.182,0-3.005-0.642-3.005-2.32c0-1.491,1.14-1.969,1.347-2.134
		c0.042-0.042-0.643-0.436-0.643-1.534C98.927,13.294,100.335,12.652,101.578,12.652 M101.496,15.615
		c0.351-0.207,0.87-0.456,0.87-0.954c0-0.497-0.29-0.787-0.727-0.787c-0.434,0-0.786,0.228-0.786,0.808
		C100.833,15.263,101.496,15.615,101.496,15.615 M102.49,18.785l-1.657-1.532c0,0-0.663,0.165-0.663,0.91
		c0.021,0.561,0.684,0.975,1.221,0.975C102.22,19.137,102.49,18.785,102.49,18.785"/>
	<path clip-path="url(#SVGID_2_)" fill="#FFFFFF" d="M24.166,14.973c0.042,1.285,0.042,2.569-0.663,2.673
		c-0.477,0.062-0.767-0.478-1.243-1.845c-2.653-7.729-9.843-9.988-14.919-5.574c-0.85,0.746-1.409,1.616-1.057,2.652
		c0.642,1.885,0.228,3.938-0.912,5.367c-0.227,0.269-0.477,0.165-0.518-0.208c-0.083-0.828-0.269-1.885-0.974-2.693
		c-0.766-0.85-0.352-1.679-0.352-1.679s-0.891,0.29-1.471-0.186c-0.704-0.601-0.974-0.746-1.741-0.849
		c-0.414-0.063-0.414-0.394-0.041-0.684c1.554-1.182,2.735-1.037,3.667-1.119c0.788-0.063,1.306-0.436,1.534-0.974
		c1.388-3.295,3.75-5.595,6.837-7.004c0.85-0.394,0.809-1.409-0.082-2.175c-0.373-0.332-0.125-0.56,0.31-0.622
		c3.481-0.414,5.595,1.699,6.403,1.803C27.895,2.996,29.346,11.596,24.166,14.973"/>
	<path clip-path="url(#SVGID_2_)" fill="#FFFFFF" d="M10.863,14.745c-0.042-1.285-0.042-2.569,0.663-2.673
		c0.477-0.062,0.767,0.477,1.243,1.844c2.653,7.729,9.843,9.988,14.919,5.574c0.85-0.746,1.409-1.616,1.057-2.632
		c-0.642-1.885-0.228-3.937,0.911-5.366c0.228-0.269,0.477-0.166,0.519,0.207c0.083,0.829,0.269,1.886,0.974,2.694
		c0.766,0.849,0.331,1.678,0.331,1.678s0.912-0.29,1.471,0.187c0.725,0.601,0.974,0.746,1.741,0.85
		c0.414,0.062,0.414,0.394,0.041,0.684c-1.554,1.181-2.714,1.036-3.667,1.119c-0.788,0.062-1.306,0.435-1.534,0.974
		c-1.388,3.294-3.75,5.595-6.837,7.004c-0.85,0.394-0.809,1.408,0.083,2.176c0.372,0.331,0.124,0.559-0.311,0.601
		c-3.481,0.414-5.595-1.699-6.403-1.803C7.133,26.721,5.683,18.122,10.863,14.745"/>
</g>
</svg>
