<?xml version="1.0" encoding="utf-8"?>
<!-- Generator: Adobe Illustrator 16.0.4, SVG Export Plug-In . SVG Version: 6.00 Build 0)  -->
<!DOCTYPE svg PUBLIC "-//W3C//DTD SVG 1.1//EN" "http://www.w3.org/Graphics/SVG/1.1/DTD/svg11.dtd">
<svg version="1.1" id="Layer_1" xmlns="http://www.w3.org/2000/svg" xmlns:xlink="http://www.w3.org/1999/xlink" x="0px" y="0px"
	 width="137px" height="29.717px" viewBox="0 0 137 29.717" enable-background="new 0 0 137 29.717" xml:space="preserve">
<polygon points="41.149,11.625 38.38,11.625 38.38,19.582 36.277,19.582 36.277,11.625 33.474,11.625 33.474,9.943 41.149,9.943 "/>
<g>
	<defs>
		<rect id="SVGID_1_" y="0" width="137" height="29.717"/>
	</defs>
	<clipPath id="SVGID_2_">
		<use xlink:href="#SVGID_1_"  overflow="visible"/>
	</clipPath>
	<path clip-path="url(#SVGID_2_)" d="M46.23,19.581v-3.592c0-0.666-0.087-1.244-0.858-1.244c-0.421,0-0.929,0.175-1.315,0.473v4.363
		h-2.05V9.943h2.05v3.855c0.526-0.455,1.262-0.806,2.068-0.806c1.034,0,2.155,0.403,2.155,2.383v4.206H46.23z"/>
	<path clip-path="url(#SVGID_2_)" d="M53.502,19.582l-0.281-0.543c-0.438,0.385-0.998,0.683-1.787,0.683
		c-1.261,0-2.19-0.823-2.19-2.12c0-1.385,1.156-2.067,2.768-2.138l1.034-0.035v-0.053c0-0.578-0.543-0.841-1.121-0.841
		c-0.613,0-1.192,0.157-1.647,0.403l-0.596-1.209c0.911-0.579,1.787-0.701,2.681-0.701c1.84,0,2.786,0.736,2.786,2.453v2.944
		c0,0.333,0,0.841,0.105,1.192L53.502,19.582z M53.03,16.708l-0.701,0.035c-0.701,0.035-1.051,0.263-1.051,0.701
		c0,0.455,0.333,0.7,0.911,0.7c0.403,0,0.683-0.088,0.823-0.192L53.03,16.708z"/>
	<path clip-path="url(#SVGID_2_)" d="M64.647,19.581v-3.68c0-0.631-0.088-1.174-0.859-1.174c-0.403,0-0.858,0.158-1.226,0.421v0.14
		v4.292h-2.051v-3.661c0-0.631-0.087-1.192-0.841-1.192c-0.403,0-0.876,0.158-1.244,0.421v4.433h-2.05V13.15h1.735l0.193,0.648
		c0.595-0.455,1.331-0.806,2.102-0.806c0.824,0,1.42,0.333,1.753,0.894c0.771-0.631,1.594-0.894,2.26-0.894
		c1.192,0,2.278,0.579,2.278,2.366v4.223H64.647z"/>
	<path clip-path="url(#SVGID_2_)" d="M69.693,16.953c0.035,0.788,0.876,1.156,1.612,1.156c0.631,0,1.087-0.087,1.771-0.438
		l0.455,1.298c-0.894,0.577-1.787,0.753-2.559,0.753c-2.4,0-3.329-1.629-3.329-3.277c0-1.804,1.104-3.434,3.136-3.434
		c1.788,0,3.085,1.314,3.085,3.312v0.631H69.693z M70.692,14.482c-0.684,0-1.068,0.631-1.068,1.122h2.154
		C71.727,15.06,71.429,14.482,70.692,14.482"/>
	<path clip-path="url(#SVGID_2_)" d="M77.158,19.721c-1.155,0-2.05-0.263-2.716-0.683l0.631-1.473
		c0.597,0.42,1.244,0.648,1.857,0.648c0.579,0,0.929-0.175,0.929-0.508c0-0.876-2.996-0.509-2.996-2.665
		c0-1.244,1.033-2.05,2.628-2.05c0.895,0,1.507,0.123,2.068,0.333v1.682c-0.613-0.245-1.279-0.455-1.98-0.455
		c-0.508,0-0.719,0.14-0.719,0.385c0,0.736,3.049,0.421,3.049,2.716C79.893,19.161,78.543,19.721,77.158,19.721"/>
	<path clip-path="url(#SVGID_2_)" d="M106.772,19.581l-0.28-0.612c-0.438,0.402-1.069,0.753-1.91,0.753
		c-0.824,0-2.331-0.42-2.331-2.663V13.15h2.051v3.803c0,0.63,0.333,1.174,1.104,1.174c0.333,0,0.631-0.122,0.929-0.315V13.15h2.05
		v5.257c0,0.316,0,0.823,0.105,1.192L106.772,19.581z"/>
	<path clip-path="url(#SVGID_2_)" d="M112.941,19.721c-2.017,0-3.628-1.191-3.628-3.33c0-1.998,1.488-3.381,3.732-3.381
		c0.245,0,0.456,0.018,0.666,0.035V9.96h2.049v9.218C115.008,19.529,114.15,19.721,112.941,19.721 M113.694,14.64
		c-0.192-0.035-0.352-0.035-0.613-0.035c-1.086,0-1.735,0.613-1.735,1.7c0,0.981,0.736,1.734,1.718,1.734
		c0.211,0,0.456-0.035,0.631-0.052V14.64z"/>
	<path clip-path="url(#SVGID_2_)" d="M119.354,19.721c-1.156,0-2.05-0.263-2.716-0.683l0.631-1.473
		c0.596,0.42,1.244,0.648,1.856,0.648c0.579,0,0.93-0.175,0.93-0.508c0-0.876-2.997-0.509-2.997-2.665
		c0-1.244,1.034-2.05,2.629-2.05c0.894,0,1.507,0.123,2.066,0.333v1.682c-0.612-0.245-1.278-0.455-1.979-0.455
		c-0.509,0-0.719,0.14-0.719,0.385c0,0.736,3.049,0.421,3.049,2.716C122.087,19.161,120.738,19.721,119.354,19.721"/>
	<path clip-path="url(#SVGID_2_)" d="M128.747,18.723c-0.614,0.63-1.473,0.998-2.523,0.998c-0.981,0-1.787-0.28-2.366-0.807
		c-0.684-0.596-1.068-1.488-1.068-2.487c0-0.964,0.351-1.822,0.963-2.453c0.597-0.614,1.438-0.982,2.472-0.982
		c1.104,0,1.979,0.368,2.594,0.999c0.56,0.596,0.841,1.42,0.841,2.331C129.658,17.268,129.343,18.109,128.747,18.723
		 M126.188,14.587c-0.911,0-1.297,0.806-1.297,1.788c0,1.068,0.508,1.787,1.35,1.787c0.911,0,1.297-0.806,1.297-1.787
		C127.538,15.323,127.029,14.587,126.188,14.587"/>
	<path clip-path="url(#SVGID_2_)" d="M134.933,19.581v-3.68c0-0.561-0.123-1.192-0.841-1.192c-0.422,0-0.877,0.123-1.386,0.456
		v4.416h-2.049V13.15h1.752l0.21,0.648c0.648-0.508,1.384-0.806,2.243-0.806c0.999,0,2.137,0.544,2.137,2.348v4.241H134.933z"/>
	<polygon clip-path="url(#SVGID_2_)" points="99.062,19.581 99.062,15.621 95.505,15.621 95.505,19.581 93.419,19.581 93.419,9.961 
		95.505,9.961 95.505,13.851 99.062,13.851 99.062,9.961 101.148,9.961 101.148,19.581 	"/>
	<path clip-path="url(#SVGID_2_)" d="M85.902,12.992c1.069,0,2.226,0.526,2.226,1.665c0,0.911-0.946,1.437-1.296,1.7l0.91,0.894
		c0,0,0.665-0.561,0.824-1.314l1.227,0.438c-0.105,0.525-0.754,1.489-1.104,1.787l1.471,1.42h-2.085l-0.367-0.333
		c0-0.054-0.666,0.473-2.12,0.473c-0.999,0-2.541-0.543-2.541-1.962c0-1.262,0.964-1.665,1.139-1.806
		c0.035-0.034-0.543-0.367-0.543-1.296C83.659,13.535,84.852,12.992,85.902,12.992 M85.833,15.498
		c0.298-0.175,0.735-0.385,0.735-0.806c0-0.421-0.246-0.666-0.613-0.666s-0.665,0.193-0.665,0.683
		C85.272,15.2,85.833,15.498,85.833,15.498 M86.674,18.179l-1.401-1.297c0,0-0.562,0.14-0.562,0.771
		c0.018,0.474,0.579,0.824,1.033,0.824C86.445,18.477,86.674,18.179,86.674,18.179"/>
	<path clip-path="url(#SVGID_2_)" d="M20.437,14.955c0.035,1.085,0.035,2.173-0.561,2.26c-0.403,0.053-0.648-0.403-1.051-1.56
		C16.581,9.12,10.5,7.21,6.208,10.942c-0.718,0.631-1.191,1.367-0.893,2.243c0.543,1.595,0.192,3.33-0.771,4.539
		c-0.193,0.228-0.403,0.14-0.439-0.176c-0.069-0.7-0.227-1.595-0.823-2.278c-0.648-0.718-0.298-1.419-0.298-1.419
		s-0.754,0.245-1.244-0.158c-0.596-0.508-0.824-0.631-1.472-0.718c-0.351-0.053-0.351-0.333-0.035-0.579
		c1.314-0.998,2.313-0.876,3.101-0.946C4,11.398,4.438,11.082,4.63,10.627c1.174-2.786,3.172-4.732,5.783-5.923
		c0.718-0.333,0.683-1.192-0.07-1.84c-0.316-0.281-0.105-0.473,0.262-0.526c2.945-0.35,4.732,1.437,5.415,1.525
		C23.59,4.827,24.817,12.099,20.437,14.955"/>
	<path clip-path="url(#SVGID_2_)" d="M9.187,14.762c-0.035-1.086-0.035-2.173,0.561-2.26c0.402-0.053,0.648,0.403,1.051,1.559
		c2.243,6.536,8.324,8.446,12.617,4.714c0.718-0.631,1.191-1.367,0.893-2.225c-0.543-1.595-0.192-3.33,0.771-4.539
		c0.193-0.228,0.403-0.14,0.439,0.175c0.069,0.701,0.227,1.595,0.823,2.278c0.648,0.718,0.28,1.42,0.28,1.42
		s0.772-0.246,1.244,0.157c0.614,0.509,0.824,0.631,1.472,0.719c0.351,0.052,0.351,0.333,0.036,0.578
		c-1.315,0.999-2.296,0.876-3.102,0.946c-0.666,0.053-1.104,0.367-1.297,0.823c-1.174,2.786-3.172,4.731-5.783,5.923
		c-0.718,0.333-0.683,1.191,0.071,1.84c0.315,0.28,0.105,0.474-0.263,0.509c-2.944,0.35-4.731-1.438-5.415-1.525
		C6.033,24.89,4.806,17.619,9.187,14.762"/>
</g>
</svg>
